G04 #@! TF.GenerationSoftware,KiCad,Pcbnew,(5.1.2-1)-1*
G04 #@! TF.CreationDate,2021-03-06T08:10:20-07:00*
G04 #@! TF.ProjectId,audio_quad_minimal,61756469-6f5f-4717-9561-645f6d696e69,rev?*
G04 #@! TF.SameCoordinates,Original*
G04 #@! TF.FileFunction,Legend,Top*
G04 #@! TF.FilePolarity,Positive*
%FSLAX46Y46*%
G04 Gerber Fmt 4.6, Leading zero omitted, Abs format (unit mm)*
G04 Created by KiCad (PCBNEW (5.1.2-1)-1) date 2021-03-06 08:10:20*
%MOMM*%
%LPD*%
G04 APERTURE LIST*
%ADD10C,0.120000*%
%ADD11C,0.150000*%
G04 APERTURE END LIST*
D10*
X149606000Y-104858500D02*
X153056000Y-104858500D01*
X149606000Y-104858500D02*
X147656000Y-104858500D01*
X149606000Y-99738500D02*
X151556000Y-99738500D01*
X149606000Y-99738500D02*
X147656000Y-99738500D01*
X74803000Y-99929000D02*
X71353000Y-99929000D01*
X74803000Y-99929000D02*
X76753000Y-99929000D01*
X74803000Y-105049000D02*
X72853000Y-105049000D01*
X74803000Y-105049000D02*
X76753000Y-105049000D01*
X150050500Y-84792500D02*
X153500500Y-84792500D01*
X150050500Y-84792500D02*
X148100500Y-84792500D01*
X150050500Y-79672500D02*
X152000500Y-79672500D01*
X150050500Y-79672500D02*
X148100500Y-79672500D01*
X74866500Y-79990000D02*
X71416500Y-79990000D01*
X74866500Y-79990000D02*
X76816500Y-79990000D01*
X74866500Y-85110000D02*
X72916500Y-85110000D01*
X74866500Y-85110000D02*
X76816500Y-85110000D01*
X154809500Y-65281500D02*
X154809500Y-66611500D01*
X153479500Y-65281500D02*
X154809500Y-65281500D01*
X152209500Y-65281500D02*
X152209500Y-67941500D01*
X152209500Y-67941500D02*
X147069500Y-67941500D01*
X152209500Y-65281500D02*
X147069500Y-65281500D01*
X147069500Y-65281500D02*
X147069500Y-67941500D01*
X101222500Y-56963000D02*
X102552500Y-56963000D01*
X101222500Y-58293000D02*
X101222500Y-56963000D01*
X101222500Y-59563000D02*
X103882500Y-59563000D01*
X103882500Y-59563000D02*
X103882500Y-64703000D01*
X101222500Y-59563000D02*
X101222500Y-64703000D01*
X101222500Y-64703000D02*
X103882500Y-64703000D01*
X174438000Y-88014500D02*
X175768000Y-88014500D01*
X174438000Y-89344500D02*
X174438000Y-88014500D01*
X177038000Y-88014500D02*
X179638000Y-88014500D01*
X177038000Y-90614500D02*
X177038000Y-88014500D01*
X174438000Y-90614500D02*
X177038000Y-90614500D01*
X179638000Y-88014500D02*
X179638000Y-95754500D01*
X174438000Y-90614500D02*
X174438000Y-95754500D01*
X174438000Y-95754500D02*
X179638000Y-95754500D01*
X48517500Y-88776500D02*
X49847500Y-88776500D01*
X48517500Y-90106500D02*
X48517500Y-88776500D01*
X51117500Y-88776500D02*
X53717500Y-88776500D01*
X51117500Y-91376500D02*
X51117500Y-88776500D01*
X48517500Y-91376500D02*
X51117500Y-91376500D01*
X53717500Y-88776500D02*
X53717500Y-96516500D01*
X48517500Y-91376500D02*
X48517500Y-96516500D01*
X48517500Y-96516500D02*
X53717500Y-96516500D01*
X152338721Y-96141000D02*
X152664279Y-96141000D01*
X152338721Y-95121000D02*
X152664279Y-95121000D01*
X72616279Y-108011500D02*
X72290721Y-108011500D01*
X72616279Y-109031500D02*
X72290721Y-109031500D01*
X152935721Y-76392500D02*
X153261279Y-76392500D01*
X152935721Y-75372500D02*
X153261279Y-75372500D01*
X73505279Y-87628000D02*
X73179721Y-87628000D01*
X73505279Y-88648000D02*
X73179721Y-88648000D01*
X119378000Y-103088221D02*
X119378000Y-103413779D01*
X120398000Y-103088221D02*
X120398000Y-103413779D01*
X111250000Y-103088221D02*
X111250000Y-103413779D01*
X112270000Y-103088221D02*
X112270000Y-103413779D01*
X115000500Y-83728779D02*
X115000500Y-83403221D01*
X113980500Y-83728779D02*
X113980500Y-83403221D01*
X107825000Y-83728779D02*
X107825000Y-83403221D01*
X106805000Y-83728779D02*
X106805000Y-83403221D01*
X103731279Y-51052000D02*
X103405721Y-51052000D01*
X103731279Y-52072000D02*
X103405721Y-52072000D01*
X106620000Y-93278000D02*
X106620000Y-91948000D01*
X107950000Y-93278000D02*
X106620000Y-93278000D01*
X109220000Y-93278000D02*
X109220000Y-90618000D01*
X109220000Y-90618000D02*
X116900000Y-90618000D01*
X109220000Y-93278000D02*
X116900000Y-93278000D01*
X116900000Y-93278000D02*
X116900000Y-90618000D01*
X172088500Y-76260000D02*
X172088500Y-74930000D01*
X173418500Y-76260000D02*
X172088500Y-76260000D01*
X174688500Y-76260000D02*
X174688500Y-73600000D01*
X174688500Y-73600000D02*
X182368500Y-73600000D01*
X174688500Y-76260000D02*
X182368500Y-76260000D01*
X182368500Y-76260000D02*
X182368500Y-73600000D01*
X46422000Y-77276000D02*
X46422000Y-75946000D01*
X47752000Y-77276000D02*
X46422000Y-77276000D01*
X49022000Y-77276000D02*
X49022000Y-74616000D01*
X49022000Y-74616000D02*
X56702000Y-74616000D01*
X49022000Y-77276000D02*
X56702000Y-77276000D01*
X56702000Y-77276000D02*
X56702000Y-74616000D01*
X94708000Y-52331500D02*
X97393000Y-52331500D01*
X94708000Y-50411500D02*
X94708000Y-52331500D01*
X97393000Y-50411500D02*
X94708000Y-50411500D01*
X147347721Y-96204500D02*
X147673279Y-96204500D01*
X147347721Y-95184500D02*
X147673279Y-95184500D01*
X77950279Y-108392500D02*
X77624721Y-108392500D01*
X77950279Y-109412500D02*
X77624721Y-109412500D01*
X138649500Y-104413500D02*
X138649500Y-103163500D01*
X139274500Y-103788500D02*
X138024500Y-103788500D01*
X137784500Y-96832937D02*
X136720063Y-95768500D01*
X137784500Y-105224063D02*
X136720063Y-106288500D01*
X137784500Y-105224063D02*
X137784500Y-102538500D01*
X137784500Y-96832937D02*
X137784500Y-99518500D01*
X136720063Y-95768500D02*
X127264500Y-95768500D01*
X136720063Y-106288500D02*
X127264500Y-106288500D01*
X127264500Y-106288500D02*
X127264500Y-102538500D01*
X127264500Y-95768500D02*
X127264500Y-99518500D01*
X84235500Y-100564500D02*
X84235500Y-101814500D01*
X83610500Y-101189500D02*
X84860500Y-101189500D01*
X85100500Y-108145063D02*
X86164937Y-109209500D01*
X85100500Y-99753937D02*
X86164937Y-98689500D01*
X85100500Y-99753937D02*
X85100500Y-102439500D01*
X85100500Y-108145063D02*
X85100500Y-105459500D01*
X86164937Y-109209500D02*
X95620500Y-109209500D01*
X86164937Y-98689500D02*
X95620500Y-98689500D01*
X95620500Y-98689500D02*
X95620500Y-102439500D01*
X95620500Y-109209500D02*
X95620500Y-105459500D01*
X148046221Y-76392500D02*
X148371779Y-76392500D01*
X148046221Y-75372500D02*
X148371779Y-75372500D01*
X77315279Y-87691500D02*
X76989721Y-87691500D01*
X77315279Y-88711500D02*
X76989721Y-88711500D01*
X138713000Y-86379500D02*
X138713000Y-85129500D01*
X139338000Y-85754500D02*
X138088000Y-85754500D01*
X137848000Y-78798937D02*
X136783563Y-77734500D01*
X137848000Y-87190063D02*
X136783563Y-88254500D01*
X137848000Y-87190063D02*
X137848000Y-84504500D01*
X137848000Y-78798937D02*
X137848000Y-81484500D01*
X136783563Y-77734500D02*
X127328000Y-77734500D01*
X136783563Y-88254500D02*
X127328000Y-88254500D01*
X127328000Y-88254500D02*
X127328000Y-84504500D01*
X127328000Y-77734500D02*
X127328000Y-81484500D01*
X84489500Y-79165000D02*
X84489500Y-80415000D01*
X83864500Y-79790000D02*
X85114500Y-79790000D01*
X85354500Y-86745563D02*
X86418937Y-87810000D01*
X85354500Y-78354437D02*
X86418937Y-77290000D01*
X85354500Y-78354437D02*
X85354500Y-81040000D01*
X85354500Y-86745563D02*
X85354500Y-84060000D01*
X86418937Y-87810000D02*
X95874500Y-87810000D01*
X86418937Y-77290000D02*
X95874500Y-77290000D01*
X95874500Y-77290000D02*
X95874500Y-81040000D01*
X95874500Y-87810000D02*
X95874500Y-84060000D01*
X91309500Y-62544000D02*
X89979500Y-62544000D01*
X91309500Y-61214000D02*
X91309500Y-62544000D01*
X91309500Y-59944000D02*
X88649500Y-59944000D01*
X88649500Y-59944000D02*
X88649500Y-57344000D01*
X91309500Y-59944000D02*
X91309500Y-57344000D01*
X91309500Y-57344000D02*
X88649500Y-57344000D01*
D11*
X148844095Y-105150880D02*
X148844095Y-105960404D01*
X148891714Y-106055642D01*
X148939333Y-106103261D01*
X149034571Y-106150880D01*
X149225047Y-106150880D01*
X149320285Y-106103261D01*
X149367904Y-106055642D01*
X149415523Y-105960404D01*
X149415523Y-105150880D01*
X150320285Y-105484214D02*
X150320285Y-106150880D01*
X150082190Y-105103261D02*
X149844095Y-105817547D01*
X150463142Y-105817547D01*
X74041095Y-98541380D02*
X74041095Y-99350904D01*
X74088714Y-99446142D01*
X74136333Y-99493761D01*
X74231571Y-99541380D01*
X74422047Y-99541380D01*
X74517285Y-99493761D01*
X74564904Y-99446142D01*
X74612523Y-99350904D01*
X74612523Y-98541380D01*
X74993476Y-98541380D02*
X75612523Y-98541380D01*
X75279190Y-98922333D01*
X75422047Y-98922333D01*
X75517285Y-98969952D01*
X75564904Y-99017571D01*
X75612523Y-99112809D01*
X75612523Y-99350904D01*
X75564904Y-99446142D01*
X75517285Y-99493761D01*
X75422047Y-99541380D01*
X75136333Y-99541380D01*
X75041095Y-99493761D01*
X74993476Y-99446142D01*
X149288595Y-85084880D02*
X149288595Y-85894404D01*
X149336214Y-85989642D01*
X149383833Y-86037261D01*
X149479071Y-86084880D01*
X149669547Y-86084880D01*
X149764785Y-86037261D01*
X149812404Y-85989642D01*
X149860023Y-85894404D01*
X149860023Y-85084880D01*
X150288595Y-85180119D02*
X150336214Y-85132500D01*
X150431452Y-85084880D01*
X150669547Y-85084880D01*
X150764785Y-85132500D01*
X150812404Y-85180119D01*
X150860023Y-85275357D01*
X150860023Y-85370595D01*
X150812404Y-85513452D01*
X150240976Y-86084880D01*
X150860023Y-86084880D01*
X74104595Y-78602380D02*
X74104595Y-79411904D01*
X74152214Y-79507142D01*
X74199833Y-79554761D01*
X74295071Y-79602380D01*
X74485547Y-79602380D01*
X74580785Y-79554761D01*
X74628404Y-79507142D01*
X74676023Y-79411904D01*
X74676023Y-78602380D01*
X75676023Y-79602380D02*
X75104595Y-79602380D01*
X75390309Y-79602380D02*
X75390309Y-78602380D01*
X75295071Y-78745238D01*
X75199833Y-78840476D01*
X75104595Y-78888095D01*
X156214261Y-67944833D02*
X156261880Y-67801976D01*
X156261880Y-67563880D01*
X156214261Y-67468642D01*
X156166642Y-67421023D01*
X156071404Y-67373404D01*
X155976166Y-67373404D01*
X155880928Y-67421023D01*
X155833309Y-67468642D01*
X155785690Y-67563880D01*
X155738071Y-67754357D01*
X155690452Y-67849595D01*
X155642833Y-67897214D01*
X155547595Y-67944833D01*
X155452357Y-67944833D01*
X155357119Y-67897214D01*
X155309500Y-67849595D01*
X155261880Y-67754357D01*
X155261880Y-67516261D01*
X155309500Y-67373404D01*
X155261880Y-67040071D02*
X156261880Y-66801976D01*
X155547595Y-66611500D01*
X156261880Y-66421023D01*
X155261880Y-66182928D01*
X155357119Y-65849595D02*
X155309500Y-65801976D01*
X155261880Y-65706738D01*
X155261880Y-65468642D01*
X155309500Y-65373404D01*
X155357119Y-65325785D01*
X155452357Y-65278166D01*
X155547595Y-65278166D01*
X155690452Y-65325785D01*
X156261880Y-65897214D01*
X156261880Y-65278166D01*
X101219166Y-56367761D02*
X101362023Y-56415380D01*
X101600119Y-56415380D01*
X101695357Y-56367761D01*
X101742976Y-56320142D01*
X101790595Y-56224904D01*
X101790595Y-56129666D01*
X101742976Y-56034428D01*
X101695357Y-55986809D01*
X101600119Y-55939190D01*
X101409642Y-55891571D01*
X101314404Y-55843952D01*
X101266785Y-55796333D01*
X101219166Y-55701095D01*
X101219166Y-55605857D01*
X101266785Y-55510619D01*
X101314404Y-55463000D01*
X101409642Y-55415380D01*
X101647738Y-55415380D01*
X101790595Y-55463000D01*
X102123928Y-55415380D02*
X102362023Y-56415380D01*
X102552500Y-55701095D01*
X102742976Y-56415380D01*
X102981071Y-55415380D01*
X103885833Y-56415380D02*
X103314404Y-56415380D01*
X103600119Y-56415380D02*
X103600119Y-55415380D01*
X103504880Y-55558238D01*
X103409642Y-55653476D01*
X103314404Y-55701095D01*
X176442761Y-87466880D02*
X176109428Y-86990690D01*
X175871333Y-87466880D02*
X175871333Y-86466880D01*
X176252285Y-86466880D01*
X176347523Y-86514500D01*
X176395142Y-86562119D01*
X176442761Y-86657357D01*
X176442761Y-86800214D01*
X176395142Y-86895452D01*
X176347523Y-86943071D01*
X176252285Y-86990690D01*
X175871333Y-86990690D01*
X176728476Y-86466880D02*
X177061809Y-87466880D01*
X177395142Y-86466880D01*
X177680857Y-86562119D02*
X177728476Y-86514500D01*
X177823714Y-86466880D01*
X178061809Y-86466880D01*
X178157047Y-86514500D01*
X178204666Y-86562119D01*
X178252285Y-86657357D01*
X178252285Y-86752595D01*
X178204666Y-86895452D01*
X177633238Y-87466880D01*
X178252285Y-87466880D01*
X50522261Y-88228880D02*
X50188928Y-87752690D01*
X49950833Y-88228880D02*
X49950833Y-87228880D01*
X50331785Y-87228880D01*
X50427023Y-87276500D01*
X50474642Y-87324119D01*
X50522261Y-87419357D01*
X50522261Y-87562214D01*
X50474642Y-87657452D01*
X50427023Y-87705071D01*
X50331785Y-87752690D01*
X49950833Y-87752690D01*
X50807976Y-87228880D02*
X51141309Y-88228880D01*
X51474642Y-87228880D01*
X52331785Y-88228880D02*
X51760357Y-88228880D01*
X52046071Y-88228880D02*
X52046071Y-87228880D01*
X51950833Y-87371738D01*
X51855595Y-87466976D01*
X51760357Y-87514595D01*
X152334833Y-94653380D02*
X152001500Y-94177190D01*
X151763404Y-94653380D02*
X151763404Y-93653380D01*
X152144357Y-93653380D01*
X152239595Y-93701000D01*
X152287214Y-93748619D01*
X152334833Y-93843857D01*
X152334833Y-93986714D01*
X152287214Y-94081952D01*
X152239595Y-94129571D01*
X152144357Y-94177190D01*
X151763404Y-94177190D01*
X152811023Y-94653380D02*
X153001500Y-94653380D01*
X153096738Y-94605761D01*
X153144357Y-94558142D01*
X153239595Y-94415285D01*
X153287214Y-94224809D01*
X153287214Y-93843857D01*
X153239595Y-93748619D01*
X153191976Y-93701000D01*
X153096738Y-93653380D01*
X152906261Y-93653380D01*
X152811023Y-93701000D01*
X152763404Y-93748619D01*
X152715785Y-93843857D01*
X152715785Y-94081952D01*
X152763404Y-94177190D01*
X152811023Y-94224809D01*
X152906261Y-94272428D01*
X153096738Y-94272428D01*
X153191976Y-94224809D01*
X153239595Y-94177190D01*
X153287214Y-94081952D01*
X72286833Y-110403880D02*
X71953500Y-109927690D01*
X71715404Y-110403880D02*
X71715404Y-109403880D01*
X72096357Y-109403880D01*
X72191595Y-109451500D01*
X72239214Y-109499119D01*
X72286833Y-109594357D01*
X72286833Y-109737214D01*
X72239214Y-109832452D01*
X72191595Y-109880071D01*
X72096357Y-109927690D01*
X71715404Y-109927690D01*
X72858261Y-109832452D02*
X72763023Y-109784833D01*
X72715404Y-109737214D01*
X72667785Y-109641976D01*
X72667785Y-109594357D01*
X72715404Y-109499119D01*
X72763023Y-109451500D01*
X72858261Y-109403880D01*
X73048738Y-109403880D01*
X73143976Y-109451500D01*
X73191595Y-109499119D01*
X73239214Y-109594357D01*
X73239214Y-109641976D01*
X73191595Y-109737214D01*
X73143976Y-109784833D01*
X73048738Y-109832452D01*
X72858261Y-109832452D01*
X72763023Y-109880071D01*
X72715404Y-109927690D01*
X72667785Y-110022928D01*
X72667785Y-110213404D01*
X72715404Y-110308642D01*
X72763023Y-110356261D01*
X72858261Y-110403880D01*
X73048738Y-110403880D01*
X73143976Y-110356261D01*
X73191595Y-110308642D01*
X73239214Y-110213404D01*
X73239214Y-110022928D01*
X73191595Y-109927690D01*
X73143976Y-109880071D01*
X73048738Y-109832452D01*
X152931833Y-74904880D02*
X152598500Y-74428690D01*
X152360404Y-74904880D02*
X152360404Y-73904880D01*
X152741357Y-73904880D01*
X152836595Y-73952500D01*
X152884214Y-74000119D01*
X152931833Y-74095357D01*
X152931833Y-74238214D01*
X152884214Y-74333452D01*
X152836595Y-74381071D01*
X152741357Y-74428690D01*
X152360404Y-74428690D01*
X153265166Y-73904880D02*
X153931833Y-73904880D01*
X153503261Y-74904880D01*
X73175833Y-90020380D02*
X72842500Y-89544190D01*
X72604404Y-90020380D02*
X72604404Y-89020380D01*
X72985357Y-89020380D01*
X73080595Y-89068000D01*
X73128214Y-89115619D01*
X73175833Y-89210857D01*
X73175833Y-89353714D01*
X73128214Y-89448952D01*
X73080595Y-89496571D01*
X72985357Y-89544190D01*
X72604404Y-89544190D01*
X74032976Y-89020380D02*
X73842500Y-89020380D01*
X73747261Y-89068000D01*
X73699642Y-89115619D01*
X73604404Y-89258476D01*
X73556785Y-89448952D01*
X73556785Y-89829904D01*
X73604404Y-89925142D01*
X73652023Y-89972761D01*
X73747261Y-90020380D01*
X73937738Y-90020380D01*
X74032976Y-89972761D01*
X74080595Y-89925142D01*
X74128214Y-89829904D01*
X74128214Y-89591809D01*
X74080595Y-89496571D01*
X74032976Y-89448952D01*
X73937738Y-89401333D01*
X73747261Y-89401333D01*
X73652023Y-89448952D01*
X73604404Y-89496571D01*
X73556785Y-89591809D01*
X121770380Y-103417666D02*
X121294190Y-103751000D01*
X121770380Y-103989095D02*
X120770380Y-103989095D01*
X120770380Y-103608142D01*
X120818000Y-103512904D01*
X120865619Y-103465285D01*
X120960857Y-103417666D01*
X121103714Y-103417666D01*
X121198952Y-103465285D01*
X121246571Y-103512904D01*
X121294190Y-103608142D01*
X121294190Y-103989095D01*
X120770380Y-102512904D02*
X120770380Y-102989095D01*
X121246571Y-103036714D01*
X121198952Y-102989095D01*
X121151333Y-102893857D01*
X121151333Y-102655761D01*
X121198952Y-102560523D01*
X121246571Y-102512904D01*
X121341809Y-102465285D01*
X121579904Y-102465285D01*
X121675142Y-102512904D01*
X121722761Y-102560523D01*
X121770380Y-102655761D01*
X121770380Y-102893857D01*
X121722761Y-102989095D01*
X121675142Y-103036714D01*
X113642380Y-103417666D02*
X113166190Y-103751000D01*
X113642380Y-103989095D02*
X112642380Y-103989095D01*
X112642380Y-103608142D01*
X112690000Y-103512904D01*
X112737619Y-103465285D01*
X112832857Y-103417666D01*
X112975714Y-103417666D01*
X113070952Y-103465285D01*
X113118571Y-103512904D01*
X113166190Y-103608142D01*
X113166190Y-103989095D01*
X112975714Y-102560523D02*
X113642380Y-102560523D01*
X112594761Y-102798619D02*
X113309047Y-103036714D01*
X113309047Y-102417666D01*
X113512880Y-83732666D02*
X113036690Y-84066000D01*
X113512880Y-84304095D02*
X112512880Y-84304095D01*
X112512880Y-83923142D01*
X112560500Y-83827904D01*
X112608119Y-83780285D01*
X112703357Y-83732666D01*
X112846214Y-83732666D01*
X112941452Y-83780285D01*
X112989071Y-83827904D01*
X113036690Y-83923142D01*
X113036690Y-84304095D01*
X112512880Y-83399333D02*
X112512880Y-82780285D01*
X112893833Y-83113619D01*
X112893833Y-82970761D01*
X112941452Y-82875523D01*
X112989071Y-82827904D01*
X113084309Y-82780285D01*
X113322404Y-82780285D01*
X113417642Y-82827904D01*
X113465261Y-82875523D01*
X113512880Y-82970761D01*
X113512880Y-83256476D01*
X113465261Y-83351714D01*
X113417642Y-83399333D01*
X106337380Y-83732666D02*
X105861190Y-84066000D01*
X106337380Y-84304095D02*
X105337380Y-84304095D01*
X105337380Y-83923142D01*
X105385000Y-83827904D01*
X105432619Y-83780285D01*
X105527857Y-83732666D01*
X105670714Y-83732666D01*
X105765952Y-83780285D01*
X105813571Y-83827904D01*
X105861190Y-83923142D01*
X105861190Y-84304095D01*
X105432619Y-83351714D02*
X105385000Y-83304095D01*
X105337380Y-83208857D01*
X105337380Y-82970761D01*
X105385000Y-82875523D01*
X105432619Y-82827904D01*
X105527857Y-82780285D01*
X105623095Y-82780285D01*
X105765952Y-82827904D01*
X106337380Y-83399333D01*
X106337380Y-82780285D01*
X103401833Y-53444380D02*
X103068500Y-52968190D01*
X102830404Y-53444380D02*
X102830404Y-52444380D01*
X103211357Y-52444380D01*
X103306595Y-52492000D01*
X103354214Y-52539619D01*
X103401833Y-52634857D01*
X103401833Y-52777714D01*
X103354214Y-52872952D01*
X103306595Y-52920571D01*
X103211357Y-52968190D01*
X102830404Y-52968190D01*
X104354214Y-53444380D02*
X103782785Y-53444380D01*
X104068500Y-53444380D02*
X104068500Y-52444380D01*
X103973261Y-52587238D01*
X103878023Y-52682476D01*
X103782785Y-52730095D01*
X105072380Y-92281333D02*
X105786666Y-92281333D01*
X105929523Y-92328952D01*
X106024761Y-92424190D01*
X106072380Y-92567047D01*
X106072380Y-92662285D01*
X105072380Y-91900380D02*
X105072380Y-91281333D01*
X105453333Y-91614666D01*
X105453333Y-91471809D01*
X105500952Y-91376571D01*
X105548571Y-91328952D01*
X105643809Y-91281333D01*
X105881904Y-91281333D01*
X105977142Y-91328952D01*
X106024761Y-91376571D01*
X106072380Y-91471809D01*
X106072380Y-91757523D01*
X106024761Y-91852761D01*
X105977142Y-91900380D01*
X170540880Y-75263333D02*
X171255166Y-75263333D01*
X171398023Y-75310952D01*
X171493261Y-75406190D01*
X171540880Y-75549047D01*
X171540880Y-75644285D01*
X170636119Y-74834761D02*
X170588500Y-74787142D01*
X170540880Y-74691904D01*
X170540880Y-74453809D01*
X170588500Y-74358571D01*
X170636119Y-74310952D01*
X170731357Y-74263333D01*
X170826595Y-74263333D01*
X170969452Y-74310952D01*
X171540880Y-74882380D01*
X171540880Y-74263333D01*
X44874380Y-76279333D02*
X45588666Y-76279333D01*
X45731523Y-76326952D01*
X45826761Y-76422190D01*
X45874380Y-76565047D01*
X45874380Y-76660285D01*
X45874380Y-75279333D02*
X45874380Y-75850761D01*
X45874380Y-75565047D02*
X44874380Y-75565047D01*
X45017238Y-75660285D01*
X45112476Y-75755523D01*
X45160095Y-75850761D01*
X95654904Y-50173880D02*
X95654904Y-49173880D01*
X95893000Y-49173880D01*
X96035857Y-49221500D01*
X96131095Y-49316738D01*
X96178714Y-49411976D01*
X96226333Y-49602452D01*
X96226333Y-49745309D01*
X96178714Y-49935785D01*
X96131095Y-50031023D01*
X96035857Y-50126261D01*
X95893000Y-50173880D01*
X95654904Y-50173880D01*
X97178714Y-50173880D02*
X96607285Y-50173880D01*
X96893000Y-50173880D02*
X96893000Y-49173880D01*
X96797761Y-49316738D01*
X96702523Y-49411976D01*
X96607285Y-49459595D01*
X147343833Y-94621642D02*
X147296214Y-94669261D01*
X147153357Y-94716880D01*
X147058119Y-94716880D01*
X146915261Y-94669261D01*
X146820023Y-94574023D01*
X146772404Y-94478785D01*
X146724785Y-94288309D01*
X146724785Y-94145452D01*
X146772404Y-93954976D01*
X146820023Y-93859738D01*
X146915261Y-93764500D01*
X147058119Y-93716880D01*
X147153357Y-93716880D01*
X147296214Y-93764500D01*
X147343833Y-93812119D01*
X147915261Y-94145452D02*
X147820023Y-94097833D01*
X147772404Y-94050214D01*
X147724785Y-93954976D01*
X147724785Y-93907357D01*
X147772404Y-93812119D01*
X147820023Y-93764500D01*
X147915261Y-93716880D01*
X148105738Y-93716880D01*
X148200976Y-93764500D01*
X148248595Y-93812119D01*
X148296214Y-93907357D01*
X148296214Y-93954976D01*
X148248595Y-94050214D01*
X148200976Y-94097833D01*
X148105738Y-94145452D01*
X147915261Y-94145452D01*
X147820023Y-94193071D01*
X147772404Y-94240690D01*
X147724785Y-94335928D01*
X147724785Y-94526404D01*
X147772404Y-94621642D01*
X147820023Y-94669261D01*
X147915261Y-94716880D01*
X148105738Y-94716880D01*
X148200976Y-94669261D01*
X148248595Y-94621642D01*
X148296214Y-94526404D01*
X148296214Y-94335928D01*
X148248595Y-94240690D01*
X148200976Y-94193071D01*
X148105738Y-94145452D01*
X77620833Y-110689642D02*
X77573214Y-110737261D01*
X77430357Y-110784880D01*
X77335119Y-110784880D01*
X77192261Y-110737261D01*
X77097023Y-110642023D01*
X77049404Y-110546785D01*
X77001785Y-110356309D01*
X77001785Y-110213452D01*
X77049404Y-110022976D01*
X77097023Y-109927738D01*
X77192261Y-109832500D01*
X77335119Y-109784880D01*
X77430357Y-109784880D01*
X77573214Y-109832500D01*
X77620833Y-109880119D01*
X77954166Y-109784880D02*
X78620833Y-109784880D01*
X78192261Y-110784880D01*
X132357833Y-107585642D02*
X132310214Y-107633261D01*
X132167357Y-107680880D01*
X132072119Y-107680880D01*
X131929261Y-107633261D01*
X131834023Y-107538023D01*
X131786404Y-107442785D01*
X131738785Y-107252309D01*
X131738785Y-107109452D01*
X131786404Y-106918976D01*
X131834023Y-106823738D01*
X131929261Y-106728500D01*
X132072119Y-106680880D01*
X132167357Y-106680880D01*
X132310214Y-106728500D01*
X132357833Y-106776119D01*
X133214976Y-106680880D02*
X133024500Y-106680880D01*
X132929261Y-106728500D01*
X132881642Y-106776119D01*
X132786404Y-106918976D01*
X132738785Y-107109452D01*
X132738785Y-107490404D01*
X132786404Y-107585642D01*
X132834023Y-107633261D01*
X132929261Y-107680880D01*
X133119738Y-107680880D01*
X133214976Y-107633261D01*
X133262595Y-107585642D01*
X133310214Y-107490404D01*
X133310214Y-107252309D01*
X133262595Y-107157071D01*
X133214976Y-107109452D01*
X133119738Y-107061833D01*
X132929261Y-107061833D01*
X132834023Y-107109452D01*
X132786404Y-107157071D01*
X132738785Y-107252309D01*
X90193833Y-98106642D02*
X90146214Y-98154261D01*
X90003357Y-98201880D01*
X89908119Y-98201880D01*
X89765261Y-98154261D01*
X89670023Y-98059023D01*
X89622404Y-97963785D01*
X89574785Y-97773309D01*
X89574785Y-97630452D01*
X89622404Y-97439976D01*
X89670023Y-97344738D01*
X89765261Y-97249500D01*
X89908119Y-97201880D01*
X90003357Y-97201880D01*
X90146214Y-97249500D01*
X90193833Y-97297119D01*
X91098595Y-97201880D02*
X90622404Y-97201880D01*
X90574785Y-97678071D01*
X90622404Y-97630452D01*
X90717642Y-97582833D01*
X90955738Y-97582833D01*
X91050976Y-97630452D01*
X91098595Y-97678071D01*
X91146214Y-97773309D01*
X91146214Y-98011404D01*
X91098595Y-98106642D01*
X91050976Y-98154261D01*
X90955738Y-98201880D01*
X90717642Y-98201880D01*
X90622404Y-98154261D01*
X90574785Y-98106642D01*
X148042333Y-74809642D02*
X147994714Y-74857261D01*
X147851857Y-74904880D01*
X147756619Y-74904880D01*
X147613761Y-74857261D01*
X147518523Y-74762023D01*
X147470904Y-74666785D01*
X147423285Y-74476309D01*
X147423285Y-74333452D01*
X147470904Y-74142976D01*
X147518523Y-74047738D01*
X147613761Y-73952500D01*
X147756619Y-73904880D01*
X147851857Y-73904880D01*
X147994714Y-73952500D01*
X148042333Y-74000119D01*
X148899476Y-74238214D02*
X148899476Y-74904880D01*
X148661380Y-73857261D02*
X148423285Y-74571547D01*
X149042333Y-74571547D01*
X76985833Y-89988642D02*
X76938214Y-90036261D01*
X76795357Y-90083880D01*
X76700119Y-90083880D01*
X76557261Y-90036261D01*
X76462023Y-89941023D01*
X76414404Y-89845785D01*
X76366785Y-89655309D01*
X76366785Y-89512452D01*
X76414404Y-89321976D01*
X76462023Y-89226738D01*
X76557261Y-89131500D01*
X76700119Y-89083880D01*
X76795357Y-89083880D01*
X76938214Y-89131500D01*
X76985833Y-89179119D01*
X77319166Y-89083880D02*
X77938214Y-89083880D01*
X77604880Y-89464833D01*
X77747738Y-89464833D01*
X77842976Y-89512452D01*
X77890595Y-89560071D01*
X77938214Y-89655309D01*
X77938214Y-89893404D01*
X77890595Y-89988642D01*
X77842976Y-90036261D01*
X77747738Y-90083880D01*
X77462023Y-90083880D01*
X77366785Y-90036261D01*
X77319166Y-89988642D01*
X132421333Y-89551642D02*
X132373714Y-89599261D01*
X132230857Y-89646880D01*
X132135619Y-89646880D01*
X131992761Y-89599261D01*
X131897523Y-89504023D01*
X131849904Y-89408785D01*
X131802285Y-89218309D01*
X131802285Y-89075452D01*
X131849904Y-88884976D01*
X131897523Y-88789738D01*
X131992761Y-88694500D01*
X132135619Y-88646880D01*
X132230857Y-88646880D01*
X132373714Y-88694500D01*
X132421333Y-88742119D01*
X132802285Y-88742119D02*
X132849904Y-88694500D01*
X132945142Y-88646880D01*
X133183238Y-88646880D01*
X133278476Y-88694500D01*
X133326095Y-88742119D01*
X133373714Y-88837357D01*
X133373714Y-88932595D01*
X133326095Y-89075452D01*
X132754666Y-89646880D01*
X133373714Y-89646880D01*
X90447833Y-76707142D02*
X90400214Y-76754761D01*
X90257357Y-76802380D01*
X90162119Y-76802380D01*
X90019261Y-76754761D01*
X89924023Y-76659523D01*
X89876404Y-76564285D01*
X89828785Y-76373809D01*
X89828785Y-76230952D01*
X89876404Y-76040476D01*
X89924023Y-75945238D01*
X90019261Y-75850000D01*
X90162119Y-75802380D01*
X90257357Y-75802380D01*
X90400214Y-75850000D01*
X90447833Y-75897619D01*
X91400214Y-76802380D02*
X90828785Y-76802380D01*
X91114500Y-76802380D02*
X91114500Y-75802380D01*
X91019261Y-75945238D01*
X90924023Y-76040476D01*
X90828785Y-76088095D01*
X89193785Y-63472571D02*
X89336642Y-63520190D01*
X89384261Y-63567809D01*
X89431880Y-63663047D01*
X89431880Y-63805904D01*
X89384261Y-63901142D01*
X89336642Y-63948761D01*
X89241404Y-63996380D01*
X88860452Y-63996380D01*
X88860452Y-62996380D01*
X89193785Y-62996380D01*
X89289023Y-63044000D01*
X89336642Y-63091619D01*
X89384261Y-63186857D01*
X89384261Y-63282095D01*
X89336642Y-63377333D01*
X89289023Y-63424952D01*
X89193785Y-63472571D01*
X88860452Y-63472571D01*
X89717595Y-62996380D02*
X90289023Y-62996380D01*
X90003309Y-63996380D02*
X90003309Y-62996380D01*
X91146166Y-63996380D02*
X90574738Y-63996380D01*
X90860452Y-63996380D02*
X90860452Y-62996380D01*
X90765214Y-63139238D01*
X90669976Y-63234476D01*
X90574738Y-63282095D01*
M02*
