G04 #@! TF.GenerationSoftware,KiCad,Pcbnew,(5.1.2-1)-1*
G04 #@! TF.CreationDate,2021-03-06T08:10:20-07:00*
G04 #@! TF.ProjectId,audio_quad_minimal,61756469-6f5f-4717-9561-645f6d696e69,rev?*
G04 #@! TF.SameCoordinates,Original*
G04 #@! TF.FileFunction,Soldermask,Bot*
G04 #@! TF.FilePolarity,Negative*
%FSLAX46Y46*%
G04 Gerber Fmt 4.6, Leading zero omitted, Abs format (unit mm)*
G04 Created by KiCad (PCBNEW (5.1.2-1)-1) date 2021-03-06 08:10:20*
%MOMM*%
%LPD*%
G04 APERTURE LIST*
%ADD10C,0.100000*%
G04 APERTURE END LIST*
D10*
G36*
X52497943Y-94292019D02*
G01*
X52564127Y-94298537D01*
X52733966Y-94350057D01*
X52890491Y-94433722D01*
X52926229Y-94463052D01*
X53027686Y-94546314D01*
X53110948Y-94647771D01*
X53140278Y-94683509D01*
X53223943Y-94840034D01*
X53275463Y-95009873D01*
X53292859Y-95186500D01*
X53275463Y-95363127D01*
X53223943Y-95532966D01*
X53140278Y-95689491D01*
X53110948Y-95725229D01*
X53027686Y-95826686D01*
X52926229Y-95909948D01*
X52890491Y-95939278D01*
X52733966Y-96022943D01*
X52564127Y-96074463D01*
X52497942Y-96080982D01*
X52431760Y-96087500D01*
X52343240Y-96087500D01*
X52277058Y-96080982D01*
X52210873Y-96074463D01*
X52041034Y-96022943D01*
X51884509Y-95939278D01*
X51848771Y-95909948D01*
X51747314Y-95826686D01*
X51664052Y-95725229D01*
X51634722Y-95689491D01*
X51551057Y-95532966D01*
X51499537Y-95363127D01*
X51482141Y-95186500D01*
X51499537Y-95009873D01*
X51551057Y-94840034D01*
X51634722Y-94683509D01*
X51664052Y-94647771D01*
X51747314Y-94546314D01*
X51848771Y-94463052D01*
X51884509Y-94433722D01*
X52041034Y-94350057D01*
X52210873Y-94298537D01*
X52277057Y-94292019D01*
X52343240Y-94285500D01*
X52431760Y-94285500D01*
X52497943Y-94292019D01*
X52497943Y-94292019D01*
G37*
G36*
X49957943Y-94292019D02*
G01*
X50024127Y-94298537D01*
X50193966Y-94350057D01*
X50350491Y-94433722D01*
X50386229Y-94463052D01*
X50487686Y-94546314D01*
X50570948Y-94647771D01*
X50600278Y-94683509D01*
X50683943Y-94840034D01*
X50735463Y-95009873D01*
X50752859Y-95186500D01*
X50735463Y-95363127D01*
X50683943Y-95532966D01*
X50600278Y-95689491D01*
X50570948Y-95725229D01*
X50487686Y-95826686D01*
X50386229Y-95909948D01*
X50350491Y-95939278D01*
X50193966Y-96022943D01*
X50024127Y-96074463D01*
X49957942Y-96080982D01*
X49891760Y-96087500D01*
X49803240Y-96087500D01*
X49737058Y-96080982D01*
X49670873Y-96074463D01*
X49501034Y-96022943D01*
X49344509Y-95939278D01*
X49308771Y-95909948D01*
X49207314Y-95826686D01*
X49124052Y-95725229D01*
X49094722Y-95689491D01*
X49011057Y-95532966D01*
X48959537Y-95363127D01*
X48942141Y-95186500D01*
X48959537Y-95009873D01*
X49011057Y-94840034D01*
X49094722Y-94683509D01*
X49124052Y-94647771D01*
X49207314Y-94546314D01*
X49308771Y-94463052D01*
X49344509Y-94433722D01*
X49501034Y-94350057D01*
X49670873Y-94298537D01*
X49737057Y-94292019D01*
X49803240Y-94285500D01*
X49891760Y-94285500D01*
X49957943Y-94292019D01*
X49957943Y-94292019D01*
G37*
G36*
X178418442Y-93530018D02*
G01*
X178484627Y-93536537D01*
X178654466Y-93588057D01*
X178810991Y-93671722D01*
X178846729Y-93701052D01*
X178948186Y-93784314D01*
X179031448Y-93885771D01*
X179060778Y-93921509D01*
X179144443Y-94078034D01*
X179195963Y-94247873D01*
X179213359Y-94424500D01*
X179195963Y-94601127D01*
X179144443Y-94770966D01*
X179060778Y-94927491D01*
X179031448Y-94963229D01*
X178948186Y-95064686D01*
X178846729Y-95147948D01*
X178810991Y-95177278D01*
X178654466Y-95260943D01*
X178484627Y-95312463D01*
X178418443Y-95318981D01*
X178352260Y-95325500D01*
X178263740Y-95325500D01*
X178197557Y-95318981D01*
X178131373Y-95312463D01*
X177961534Y-95260943D01*
X177805009Y-95177278D01*
X177769271Y-95147948D01*
X177667814Y-95064686D01*
X177584552Y-94963229D01*
X177555222Y-94927491D01*
X177471557Y-94770966D01*
X177420037Y-94601127D01*
X177402641Y-94424500D01*
X177420037Y-94247873D01*
X177471557Y-94078034D01*
X177555222Y-93921509D01*
X177584552Y-93885771D01*
X177667814Y-93784314D01*
X177769271Y-93701052D01*
X177805009Y-93671722D01*
X177961534Y-93588057D01*
X178131373Y-93536537D01*
X178197558Y-93530018D01*
X178263740Y-93523500D01*
X178352260Y-93523500D01*
X178418442Y-93530018D01*
X178418442Y-93530018D01*
G37*
G36*
X175878442Y-93530018D02*
G01*
X175944627Y-93536537D01*
X176114466Y-93588057D01*
X176270991Y-93671722D01*
X176306729Y-93701052D01*
X176408186Y-93784314D01*
X176491448Y-93885771D01*
X176520778Y-93921509D01*
X176604443Y-94078034D01*
X176655963Y-94247873D01*
X176673359Y-94424500D01*
X176655963Y-94601127D01*
X176604443Y-94770966D01*
X176520778Y-94927491D01*
X176491448Y-94963229D01*
X176408186Y-95064686D01*
X176306729Y-95147948D01*
X176270991Y-95177278D01*
X176114466Y-95260943D01*
X175944627Y-95312463D01*
X175878443Y-95318981D01*
X175812260Y-95325500D01*
X175723740Y-95325500D01*
X175657557Y-95318981D01*
X175591373Y-95312463D01*
X175421534Y-95260943D01*
X175265009Y-95177278D01*
X175229271Y-95147948D01*
X175127814Y-95064686D01*
X175044552Y-94963229D01*
X175015222Y-94927491D01*
X174931557Y-94770966D01*
X174880037Y-94601127D01*
X174862641Y-94424500D01*
X174880037Y-94247873D01*
X174931557Y-94078034D01*
X175015222Y-93921509D01*
X175044552Y-93885771D01*
X175127814Y-93784314D01*
X175229271Y-93701052D01*
X175265009Y-93671722D01*
X175421534Y-93588057D01*
X175591373Y-93536537D01*
X175657558Y-93530018D01*
X175723740Y-93523500D01*
X175812260Y-93523500D01*
X175878442Y-93530018D01*
X175878442Y-93530018D01*
G37*
G36*
X49957942Y-91752018D02*
G01*
X50024127Y-91758537D01*
X50193966Y-91810057D01*
X50350491Y-91893722D01*
X50386229Y-91923052D01*
X50487686Y-92006314D01*
X50570948Y-92107771D01*
X50600278Y-92143509D01*
X50683943Y-92300034D01*
X50735463Y-92469873D01*
X50752859Y-92646500D01*
X50735463Y-92823127D01*
X50683943Y-92992966D01*
X50600278Y-93149491D01*
X50570948Y-93185229D01*
X50487686Y-93286686D01*
X50386229Y-93369948D01*
X50350491Y-93399278D01*
X50193966Y-93482943D01*
X50024127Y-93534463D01*
X49957942Y-93540982D01*
X49891760Y-93547500D01*
X49803240Y-93547500D01*
X49737058Y-93540982D01*
X49670873Y-93534463D01*
X49501034Y-93482943D01*
X49344509Y-93399278D01*
X49308771Y-93369948D01*
X49207314Y-93286686D01*
X49124052Y-93185229D01*
X49094722Y-93149491D01*
X49011057Y-92992966D01*
X48959537Y-92823127D01*
X48942141Y-92646500D01*
X48959537Y-92469873D01*
X49011057Y-92300034D01*
X49094722Y-92143509D01*
X49124052Y-92107771D01*
X49207314Y-92006314D01*
X49308771Y-91923052D01*
X49344509Y-91893722D01*
X49501034Y-91810057D01*
X49670873Y-91758537D01*
X49737058Y-91752018D01*
X49803240Y-91745500D01*
X49891760Y-91745500D01*
X49957942Y-91752018D01*
X49957942Y-91752018D01*
G37*
G36*
X52497942Y-91752018D02*
G01*
X52564127Y-91758537D01*
X52733966Y-91810057D01*
X52890491Y-91893722D01*
X52926229Y-91923052D01*
X53027686Y-92006314D01*
X53110948Y-92107771D01*
X53140278Y-92143509D01*
X53223943Y-92300034D01*
X53275463Y-92469873D01*
X53292859Y-92646500D01*
X53275463Y-92823127D01*
X53223943Y-92992966D01*
X53140278Y-93149491D01*
X53110948Y-93185229D01*
X53027686Y-93286686D01*
X52926229Y-93369948D01*
X52890491Y-93399278D01*
X52733966Y-93482943D01*
X52564127Y-93534463D01*
X52497942Y-93540982D01*
X52431760Y-93547500D01*
X52343240Y-93547500D01*
X52277058Y-93540982D01*
X52210873Y-93534463D01*
X52041034Y-93482943D01*
X51884509Y-93399278D01*
X51848771Y-93369948D01*
X51747314Y-93286686D01*
X51664052Y-93185229D01*
X51634722Y-93149491D01*
X51551057Y-92992966D01*
X51499537Y-92823127D01*
X51482141Y-92646500D01*
X51499537Y-92469873D01*
X51551057Y-92300034D01*
X51634722Y-92143509D01*
X51664052Y-92107771D01*
X51747314Y-92006314D01*
X51848771Y-91923052D01*
X51884509Y-91893722D01*
X52041034Y-91810057D01*
X52210873Y-91758537D01*
X52277058Y-91752018D01*
X52343240Y-91745500D01*
X52431760Y-91745500D01*
X52497942Y-91752018D01*
X52497942Y-91752018D01*
G37*
G36*
X108851000Y-92849000D02*
G01*
X107049000Y-92849000D01*
X107049000Y-91047000D01*
X108851000Y-91047000D01*
X108851000Y-92849000D01*
X108851000Y-92849000D01*
G37*
G36*
X115680442Y-91053518D02*
G01*
X115746627Y-91060037D01*
X115916466Y-91111557D01*
X116072991Y-91195222D01*
X116108729Y-91224552D01*
X116210186Y-91307814D01*
X116293448Y-91409271D01*
X116322778Y-91445009D01*
X116406443Y-91601534D01*
X116457963Y-91771373D01*
X116475359Y-91948000D01*
X116457963Y-92124627D01*
X116406443Y-92294466D01*
X116322778Y-92450991D01*
X116307282Y-92469873D01*
X116210186Y-92588186D01*
X116108729Y-92671448D01*
X116072991Y-92700778D01*
X115916466Y-92784443D01*
X115746627Y-92835963D01*
X115680442Y-92842482D01*
X115614260Y-92849000D01*
X115525740Y-92849000D01*
X115459558Y-92842482D01*
X115393373Y-92835963D01*
X115223534Y-92784443D01*
X115067009Y-92700778D01*
X115031271Y-92671448D01*
X114929814Y-92588186D01*
X114832718Y-92469873D01*
X114817222Y-92450991D01*
X114733557Y-92294466D01*
X114682037Y-92124627D01*
X114664641Y-91948000D01*
X114682037Y-91771373D01*
X114733557Y-91601534D01*
X114817222Y-91445009D01*
X114846552Y-91409271D01*
X114929814Y-91307814D01*
X115031271Y-91224552D01*
X115067009Y-91195222D01*
X115223534Y-91111557D01*
X115393373Y-91060037D01*
X115459558Y-91053518D01*
X115525740Y-91047000D01*
X115614260Y-91047000D01*
X115680442Y-91053518D01*
X115680442Y-91053518D01*
G37*
G36*
X110600442Y-91053518D02*
G01*
X110666627Y-91060037D01*
X110836466Y-91111557D01*
X110992991Y-91195222D01*
X111028729Y-91224552D01*
X111130186Y-91307814D01*
X111213448Y-91409271D01*
X111242778Y-91445009D01*
X111326443Y-91601534D01*
X111377963Y-91771373D01*
X111395359Y-91948000D01*
X111377963Y-92124627D01*
X111326443Y-92294466D01*
X111242778Y-92450991D01*
X111227282Y-92469873D01*
X111130186Y-92588186D01*
X111028729Y-92671448D01*
X110992991Y-92700778D01*
X110836466Y-92784443D01*
X110666627Y-92835963D01*
X110600442Y-92842482D01*
X110534260Y-92849000D01*
X110445740Y-92849000D01*
X110379558Y-92842482D01*
X110313373Y-92835963D01*
X110143534Y-92784443D01*
X109987009Y-92700778D01*
X109951271Y-92671448D01*
X109849814Y-92588186D01*
X109752718Y-92469873D01*
X109737222Y-92450991D01*
X109653557Y-92294466D01*
X109602037Y-92124627D01*
X109584641Y-91948000D01*
X109602037Y-91771373D01*
X109653557Y-91601534D01*
X109737222Y-91445009D01*
X109766552Y-91409271D01*
X109849814Y-91307814D01*
X109951271Y-91224552D01*
X109987009Y-91195222D01*
X110143534Y-91111557D01*
X110313373Y-91060037D01*
X110379558Y-91053518D01*
X110445740Y-91047000D01*
X110534260Y-91047000D01*
X110600442Y-91053518D01*
X110600442Y-91053518D01*
G37*
G36*
X113140442Y-91053518D02*
G01*
X113206627Y-91060037D01*
X113376466Y-91111557D01*
X113532991Y-91195222D01*
X113568729Y-91224552D01*
X113670186Y-91307814D01*
X113753448Y-91409271D01*
X113782778Y-91445009D01*
X113866443Y-91601534D01*
X113917963Y-91771373D01*
X113935359Y-91948000D01*
X113917963Y-92124627D01*
X113866443Y-92294466D01*
X113782778Y-92450991D01*
X113767282Y-92469873D01*
X113670186Y-92588186D01*
X113568729Y-92671448D01*
X113532991Y-92700778D01*
X113376466Y-92784443D01*
X113206627Y-92835963D01*
X113140442Y-92842482D01*
X113074260Y-92849000D01*
X112985740Y-92849000D01*
X112919558Y-92842482D01*
X112853373Y-92835963D01*
X112683534Y-92784443D01*
X112527009Y-92700778D01*
X112491271Y-92671448D01*
X112389814Y-92588186D01*
X112292718Y-92469873D01*
X112277222Y-92450991D01*
X112193557Y-92294466D01*
X112142037Y-92124627D01*
X112124641Y-91948000D01*
X112142037Y-91771373D01*
X112193557Y-91601534D01*
X112277222Y-91445009D01*
X112306552Y-91409271D01*
X112389814Y-91307814D01*
X112491271Y-91224552D01*
X112527009Y-91195222D01*
X112683534Y-91111557D01*
X112853373Y-91060037D01*
X112919558Y-91053518D01*
X112985740Y-91047000D01*
X113074260Y-91047000D01*
X113140442Y-91053518D01*
X113140442Y-91053518D01*
G37*
G36*
X178418443Y-90990019D02*
G01*
X178484627Y-90996537D01*
X178654466Y-91048057D01*
X178810991Y-91131722D01*
X178846729Y-91161052D01*
X178948186Y-91244314D01*
X179031448Y-91345771D01*
X179060778Y-91381509D01*
X179144443Y-91538034D01*
X179195963Y-91707873D01*
X179213359Y-91884500D01*
X179195963Y-92061127D01*
X179144443Y-92230966D01*
X179060778Y-92387491D01*
X179031448Y-92423229D01*
X178948186Y-92524686D01*
X178846729Y-92607948D01*
X178810991Y-92637278D01*
X178654466Y-92720943D01*
X178484627Y-92772463D01*
X178418443Y-92778981D01*
X178352260Y-92785500D01*
X178263740Y-92785500D01*
X178197558Y-92778982D01*
X178131373Y-92772463D01*
X177961534Y-92720943D01*
X177805009Y-92637278D01*
X177769271Y-92607948D01*
X177667814Y-92524686D01*
X177584552Y-92423229D01*
X177555222Y-92387491D01*
X177471557Y-92230966D01*
X177420037Y-92061127D01*
X177402641Y-91884500D01*
X177420037Y-91707873D01*
X177471557Y-91538034D01*
X177555222Y-91381509D01*
X177584552Y-91345771D01*
X177667814Y-91244314D01*
X177769271Y-91161052D01*
X177805009Y-91131722D01*
X177961534Y-91048057D01*
X178131373Y-90996537D01*
X178197557Y-90990019D01*
X178263740Y-90983500D01*
X178352260Y-90983500D01*
X178418443Y-90990019D01*
X178418443Y-90990019D01*
G37*
G36*
X175878443Y-90990019D02*
G01*
X175944627Y-90996537D01*
X176114466Y-91048057D01*
X176270991Y-91131722D01*
X176306729Y-91161052D01*
X176408186Y-91244314D01*
X176491448Y-91345771D01*
X176520778Y-91381509D01*
X176604443Y-91538034D01*
X176655963Y-91707873D01*
X176673359Y-91884500D01*
X176655963Y-92061127D01*
X176604443Y-92230966D01*
X176520778Y-92387491D01*
X176491448Y-92423229D01*
X176408186Y-92524686D01*
X176306729Y-92607948D01*
X176270991Y-92637278D01*
X176114466Y-92720943D01*
X175944627Y-92772463D01*
X175878443Y-92778981D01*
X175812260Y-92785500D01*
X175723740Y-92785500D01*
X175657558Y-92778982D01*
X175591373Y-92772463D01*
X175421534Y-92720943D01*
X175265009Y-92637278D01*
X175229271Y-92607948D01*
X175127814Y-92524686D01*
X175044552Y-92423229D01*
X175015222Y-92387491D01*
X174931557Y-92230966D01*
X174880037Y-92061127D01*
X174862641Y-91884500D01*
X174880037Y-91707873D01*
X174931557Y-91538034D01*
X175015222Y-91381509D01*
X175044552Y-91345771D01*
X175127814Y-91244314D01*
X175229271Y-91161052D01*
X175265009Y-91131722D01*
X175421534Y-91048057D01*
X175591373Y-90996537D01*
X175657557Y-90990019D01*
X175723740Y-90983500D01*
X175812260Y-90983500D01*
X175878443Y-90990019D01*
X175878443Y-90990019D01*
G37*
G36*
X52497943Y-89212019D02*
G01*
X52564127Y-89218537D01*
X52733966Y-89270057D01*
X52890491Y-89353722D01*
X52926229Y-89383052D01*
X53027686Y-89466314D01*
X53110948Y-89567771D01*
X53140278Y-89603509D01*
X53223943Y-89760034D01*
X53275463Y-89929873D01*
X53292859Y-90106500D01*
X53275463Y-90283127D01*
X53223943Y-90452966D01*
X53140278Y-90609491D01*
X53110948Y-90645229D01*
X53027686Y-90746686D01*
X52926229Y-90829948D01*
X52890491Y-90859278D01*
X52733966Y-90942943D01*
X52564127Y-90994463D01*
X52497943Y-91000981D01*
X52431760Y-91007500D01*
X52343240Y-91007500D01*
X52277057Y-91000981D01*
X52210873Y-90994463D01*
X52041034Y-90942943D01*
X51884509Y-90859278D01*
X51848771Y-90829948D01*
X51747314Y-90746686D01*
X51664052Y-90645229D01*
X51634722Y-90609491D01*
X51551057Y-90452966D01*
X51499537Y-90283127D01*
X51482141Y-90106500D01*
X51499537Y-89929873D01*
X51551057Y-89760034D01*
X51634722Y-89603509D01*
X51664052Y-89567771D01*
X51747314Y-89466314D01*
X51848771Y-89383052D01*
X51884509Y-89353722D01*
X52041034Y-89270057D01*
X52210873Y-89218537D01*
X52277057Y-89212019D01*
X52343240Y-89205500D01*
X52431760Y-89205500D01*
X52497943Y-89212019D01*
X52497943Y-89212019D01*
G37*
G36*
X50748500Y-91007500D02*
G01*
X48946500Y-91007500D01*
X48946500Y-89205500D01*
X50748500Y-89205500D01*
X50748500Y-91007500D01*
X50748500Y-91007500D01*
G37*
G36*
X178418442Y-88450018D02*
G01*
X178484627Y-88456537D01*
X178654466Y-88508057D01*
X178810991Y-88591722D01*
X178846729Y-88621052D01*
X178948186Y-88704314D01*
X179031448Y-88805771D01*
X179060778Y-88841509D01*
X179144443Y-88998034D01*
X179195963Y-89167873D01*
X179213359Y-89344500D01*
X179195963Y-89521127D01*
X179144443Y-89690966D01*
X179060778Y-89847491D01*
X179031448Y-89883229D01*
X178948186Y-89984686D01*
X178846729Y-90067948D01*
X178810991Y-90097278D01*
X178654466Y-90180943D01*
X178484627Y-90232463D01*
X178418443Y-90238981D01*
X178352260Y-90245500D01*
X178263740Y-90245500D01*
X178197557Y-90238981D01*
X178131373Y-90232463D01*
X177961534Y-90180943D01*
X177805009Y-90097278D01*
X177769271Y-90067948D01*
X177667814Y-89984686D01*
X177584552Y-89883229D01*
X177555222Y-89847491D01*
X177471557Y-89690966D01*
X177420037Y-89521127D01*
X177402641Y-89344500D01*
X177420037Y-89167873D01*
X177471557Y-88998034D01*
X177555222Y-88841509D01*
X177584552Y-88805771D01*
X177667814Y-88704314D01*
X177769271Y-88621052D01*
X177805009Y-88591722D01*
X177961534Y-88508057D01*
X178131373Y-88456537D01*
X178197558Y-88450018D01*
X178263740Y-88443500D01*
X178352260Y-88443500D01*
X178418442Y-88450018D01*
X178418442Y-88450018D01*
G37*
G36*
X176669000Y-90245500D02*
G01*
X174867000Y-90245500D01*
X174867000Y-88443500D01*
X176669000Y-88443500D01*
X176669000Y-90245500D01*
X176669000Y-90245500D01*
G37*
G36*
X48653000Y-76847000D02*
G01*
X46851000Y-76847000D01*
X46851000Y-75045000D01*
X48653000Y-75045000D01*
X48653000Y-76847000D01*
X48653000Y-76847000D01*
G37*
G36*
X55482442Y-75051518D02*
G01*
X55548627Y-75058037D01*
X55718466Y-75109557D01*
X55874991Y-75193222D01*
X55910729Y-75222552D01*
X56012186Y-75305814D01*
X56095448Y-75407271D01*
X56124778Y-75443009D01*
X56208443Y-75599534D01*
X56259963Y-75769373D01*
X56277359Y-75946000D01*
X56259963Y-76122627D01*
X56208443Y-76292466D01*
X56124778Y-76448991D01*
X56095448Y-76484729D01*
X56012186Y-76586186D01*
X55910729Y-76669448D01*
X55874991Y-76698778D01*
X55718466Y-76782443D01*
X55548627Y-76833963D01*
X55482442Y-76840482D01*
X55416260Y-76847000D01*
X55327740Y-76847000D01*
X55261558Y-76840482D01*
X55195373Y-76833963D01*
X55025534Y-76782443D01*
X54869009Y-76698778D01*
X54833271Y-76669448D01*
X54731814Y-76586186D01*
X54648552Y-76484729D01*
X54619222Y-76448991D01*
X54535557Y-76292466D01*
X54484037Y-76122627D01*
X54466641Y-75946000D01*
X54484037Y-75769373D01*
X54535557Y-75599534D01*
X54619222Y-75443009D01*
X54648552Y-75407271D01*
X54731814Y-75305814D01*
X54833271Y-75222552D01*
X54869009Y-75193222D01*
X55025534Y-75109557D01*
X55195373Y-75058037D01*
X55261558Y-75051518D01*
X55327740Y-75045000D01*
X55416260Y-75045000D01*
X55482442Y-75051518D01*
X55482442Y-75051518D01*
G37*
G36*
X52942442Y-75051518D02*
G01*
X53008627Y-75058037D01*
X53178466Y-75109557D01*
X53334991Y-75193222D01*
X53370729Y-75222552D01*
X53472186Y-75305814D01*
X53555448Y-75407271D01*
X53584778Y-75443009D01*
X53668443Y-75599534D01*
X53719963Y-75769373D01*
X53737359Y-75946000D01*
X53719963Y-76122627D01*
X53668443Y-76292466D01*
X53584778Y-76448991D01*
X53555448Y-76484729D01*
X53472186Y-76586186D01*
X53370729Y-76669448D01*
X53334991Y-76698778D01*
X53178466Y-76782443D01*
X53008627Y-76833963D01*
X52942442Y-76840482D01*
X52876260Y-76847000D01*
X52787740Y-76847000D01*
X52721558Y-76840482D01*
X52655373Y-76833963D01*
X52485534Y-76782443D01*
X52329009Y-76698778D01*
X52293271Y-76669448D01*
X52191814Y-76586186D01*
X52108552Y-76484729D01*
X52079222Y-76448991D01*
X51995557Y-76292466D01*
X51944037Y-76122627D01*
X51926641Y-75946000D01*
X51944037Y-75769373D01*
X51995557Y-75599534D01*
X52079222Y-75443009D01*
X52108552Y-75407271D01*
X52191814Y-75305814D01*
X52293271Y-75222552D01*
X52329009Y-75193222D01*
X52485534Y-75109557D01*
X52655373Y-75058037D01*
X52721558Y-75051518D01*
X52787740Y-75045000D01*
X52876260Y-75045000D01*
X52942442Y-75051518D01*
X52942442Y-75051518D01*
G37*
G36*
X50402442Y-75051518D02*
G01*
X50468627Y-75058037D01*
X50638466Y-75109557D01*
X50794991Y-75193222D01*
X50830729Y-75222552D01*
X50932186Y-75305814D01*
X51015448Y-75407271D01*
X51044778Y-75443009D01*
X51128443Y-75599534D01*
X51179963Y-75769373D01*
X51197359Y-75946000D01*
X51179963Y-76122627D01*
X51128443Y-76292466D01*
X51044778Y-76448991D01*
X51015448Y-76484729D01*
X50932186Y-76586186D01*
X50830729Y-76669448D01*
X50794991Y-76698778D01*
X50638466Y-76782443D01*
X50468627Y-76833963D01*
X50402442Y-76840482D01*
X50336260Y-76847000D01*
X50247740Y-76847000D01*
X50181558Y-76840482D01*
X50115373Y-76833963D01*
X49945534Y-76782443D01*
X49789009Y-76698778D01*
X49753271Y-76669448D01*
X49651814Y-76586186D01*
X49568552Y-76484729D01*
X49539222Y-76448991D01*
X49455557Y-76292466D01*
X49404037Y-76122627D01*
X49386641Y-75946000D01*
X49404037Y-75769373D01*
X49455557Y-75599534D01*
X49539222Y-75443009D01*
X49568552Y-75407271D01*
X49651814Y-75305814D01*
X49753271Y-75222552D01*
X49789009Y-75193222D01*
X49945534Y-75109557D01*
X50115373Y-75058037D01*
X50181558Y-75051518D01*
X50247740Y-75045000D01*
X50336260Y-75045000D01*
X50402442Y-75051518D01*
X50402442Y-75051518D01*
G37*
G36*
X178608942Y-74035518D02*
G01*
X178675127Y-74042037D01*
X178844966Y-74093557D01*
X179001491Y-74177222D01*
X179037229Y-74206552D01*
X179138686Y-74289814D01*
X179221948Y-74391271D01*
X179251278Y-74427009D01*
X179334943Y-74583534D01*
X179386463Y-74753373D01*
X179403859Y-74930000D01*
X179386463Y-75106627D01*
X179334943Y-75276466D01*
X179251278Y-75432991D01*
X179221948Y-75468729D01*
X179138686Y-75570186D01*
X179037229Y-75653448D01*
X179001491Y-75682778D01*
X178844966Y-75766443D01*
X178675127Y-75817963D01*
X178608942Y-75824482D01*
X178542760Y-75831000D01*
X178454240Y-75831000D01*
X178388058Y-75824482D01*
X178321873Y-75817963D01*
X178152034Y-75766443D01*
X177995509Y-75682778D01*
X177959771Y-75653448D01*
X177858314Y-75570186D01*
X177775052Y-75468729D01*
X177745722Y-75432991D01*
X177662057Y-75276466D01*
X177610537Y-75106627D01*
X177593141Y-74930000D01*
X177610537Y-74753373D01*
X177662057Y-74583534D01*
X177745722Y-74427009D01*
X177775052Y-74391271D01*
X177858314Y-74289814D01*
X177959771Y-74206552D01*
X177995509Y-74177222D01*
X178152034Y-74093557D01*
X178321873Y-74042037D01*
X178388058Y-74035518D01*
X178454240Y-74029000D01*
X178542760Y-74029000D01*
X178608942Y-74035518D01*
X178608942Y-74035518D01*
G37*
G36*
X176068942Y-74035518D02*
G01*
X176135127Y-74042037D01*
X176304966Y-74093557D01*
X176461491Y-74177222D01*
X176497229Y-74206552D01*
X176598686Y-74289814D01*
X176681948Y-74391271D01*
X176711278Y-74427009D01*
X176794943Y-74583534D01*
X176846463Y-74753373D01*
X176863859Y-74930000D01*
X176846463Y-75106627D01*
X176794943Y-75276466D01*
X176711278Y-75432991D01*
X176681948Y-75468729D01*
X176598686Y-75570186D01*
X176497229Y-75653448D01*
X176461491Y-75682778D01*
X176304966Y-75766443D01*
X176135127Y-75817963D01*
X176068942Y-75824482D01*
X176002760Y-75831000D01*
X175914240Y-75831000D01*
X175848058Y-75824482D01*
X175781873Y-75817963D01*
X175612034Y-75766443D01*
X175455509Y-75682778D01*
X175419771Y-75653448D01*
X175318314Y-75570186D01*
X175235052Y-75468729D01*
X175205722Y-75432991D01*
X175122057Y-75276466D01*
X175070537Y-75106627D01*
X175053141Y-74930000D01*
X175070537Y-74753373D01*
X175122057Y-74583534D01*
X175205722Y-74427009D01*
X175235052Y-74391271D01*
X175318314Y-74289814D01*
X175419771Y-74206552D01*
X175455509Y-74177222D01*
X175612034Y-74093557D01*
X175781873Y-74042037D01*
X175848058Y-74035518D01*
X175914240Y-74029000D01*
X176002760Y-74029000D01*
X176068942Y-74035518D01*
X176068942Y-74035518D01*
G37*
G36*
X181148942Y-74035518D02*
G01*
X181215127Y-74042037D01*
X181384966Y-74093557D01*
X181541491Y-74177222D01*
X181577229Y-74206552D01*
X181678686Y-74289814D01*
X181761948Y-74391271D01*
X181791278Y-74427009D01*
X181874943Y-74583534D01*
X181926463Y-74753373D01*
X181943859Y-74930000D01*
X181926463Y-75106627D01*
X181874943Y-75276466D01*
X181791278Y-75432991D01*
X181761948Y-75468729D01*
X181678686Y-75570186D01*
X181577229Y-75653448D01*
X181541491Y-75682778D01*
X181384966Y-75766443D01*
X181215127Y-75817963D01*
X181148942Y-75824482D01*
X181082760Y-75831000D01*
X180994240Y-75831000D01*
X180928058Y-75824482D01*
X180861873Y-75817963D01*
X180692034Y-75766443D01*
X180535509Y-75682778D01*
X180499771Y-75653448D01*
X180398314Y-75570186D01*
X180315052Y-75468729D01*
X180285722Y-75432991D01*
X180202057Y-75276466D01*
X180150537Y-75106627D01*
X180133141Y-74930000D01*
X180150537Y-74753373D01*
X180202057Y-74583534D01*
X180285722Y-74427009D01*
X180315052Y-74391271D01*
X180398314Y-74289814D01*
X180499771Y-74206552D01*
X180535509Y-74177222D01*
X180692034Y-74093557D01*
X180861873Y-74042037D01*
X180928058Y-74035518D01*
X180994240Y-74029000D01*
X181082760Y-74029000D01*
X181148942Y-74035518D01*
X181148942Y-74035518D01*
G37*
G36*
X174319500Y-75831000D02*
G01*
X172517500Y-75831000D01*
X172517500Y-74029000D01*
X174319500Y-74029000D01*
X174319500Y-75831000D01*
X174319500Y-75831000D01*
G37*
G36*
X148509942Y-65717018D02*
G01*
X148576127Y-65723537D01*
X148745966Y-65775057D01*
X148902491Y-65858722D01*
X148938229Y-65888052D01*
X149039686Y-65971314D01*
X149122948Y-66072771D01*
X149152278Y-66108509D01*
X149235943Y-66265034D01*
X149287463Y-66434873D01*
X149304859Y-66611500D01*
X149287463Y-66788127D01*
X149235943Y-66957966D01*
X149152278Y-67114491D01*
X149122948Y-67150229D01*
X149039686Y-67251686D01*
X148938229Y-67334948D01*
X148902491Y-67364278D01*
X148745966Y-67447943D01*
X148576127Y-67499463D01*
X148509942Y-67505982D01*
X148443760Y-67512500D01*
X148355240Y-67512500D01*
X148289058Y-67505982D01*
X148222873Y-67499463D01*
X148053034Y-67447943D01*
X147896509Y-67364278D01*
X147860771Y-67334948D01*
X147759314Y-67251686D01*
X147676052Y-67150229D01*
X147646722Y-67114491D01*
X147563057Y-66957966D01*
X147511537Y-66788127D01*
X147494141Y-66611500D01*
X147511537Y-66434873D01*
X147563057Y-66265034D01*
X147646722Y-66108509D01*
X147676052Y-66072771D01*
X147759314Y-65971314D01*
X147860771Y-65888052D01*
X147896509Y-65858722D01*
X148053034Y-65775057D01*
X148222873Y-65723537D01*
X148289058Y-65717018D01*
X148355240Y-65710500D01*
X148443760Y-65710500D01*
X148509942Y-65717018D01*
X148509942Y-65717018D01*
G37*
G36*
X154380500Y-67512500D02*
G01*
X152578500Y-67512500D01*
X152578500Y-65710500D01*
X154380500Y-65710500D01*
X154380500Y-67512500D01*
X154380500Y-67512500D01*
G37*
G36*
X151049942Y-65717018D02*
G01*
X151116127Y-65723537D01*
X151285966Y-65775057D01*
X151442491Y-65858722D01*
X151478229Y-65888052D01*
X151579686Y-65971314D01*
X151662948Y-66072771D01*
X151692278Y-66108509D01*
X151775943Y-66265034D01*
X151827463Y-66434873D01*
X151844859Y-66611500D01*
X151827463Y-66788127D01*
X151775943Y-66957966D01*
X151692278Y-67114491D01*
X151662948Y-67150229D01*
X151579686Y-67251686D01*
X151478229Y-67334948D01*
X151442491Y-67364278D01*
X151285966Y-67447943D01*
X151116127Y-67499463D01*
X151049942Y-67505982D01*
X150983760Y-67512500D01*
X150895240Y-67512500D01*
X150829058Y-67505982D01*
X150762873Y-67499463D01*
X150593034Y-67447943D01*
X150436509Y-67364278D01*
X150400771Y-67334948D01*
X150299314Y-67251686D01*
X150216052Y-67150229D01*
X150186722Y-67114491D01*
X150103057Y-66957966D01*
X150051537Y-66788127D01*
X150034141Y-66611500D01*
X150051537Y-66434873D01*
X150103057Y-66265034D01*
X150186722Y-66108509D01*
X150216052Y-66072771D01*
X150299314Y-65971314D01*
X150400771Y-65888052D01*
X150436509Y-65858722D01*
X150593034Y-65775057D01*
X150762873Y-65723537D01*
X150829058Y-65717018D01*
X150895240Y-65710500D01*
X150983760Y-65710500D01*
X151049942Y-65717018D01*
X151049942Y-65717018D01*
G37*
G36*
X102662943Y-62478519D02*
G01*
X102729127Y-62485037D01*
X102898966Y-62536557D01*
X103055491Y-62620222D01*
X103091229Y-62649552D01*
X103192686Y-62732814D01*
X103275948Y-62834271D01*
X103305278Y-62870009D01*
X103388943Y-63026534D01*
X103440463Y-63196373D01*
X103457859Y-63373000D01*
X103440463Y-63549627D01*
X103388943Y-63719466D01*
X103305278Y-63875991D01*
X103275948Y-63911729D01*
X103192686Y-64013186D01*
X103091229Y-64096448D01*
X103055491Y-64125778D01*
X102898966Y-64209443D01*
X102729127Y-64260963D01*
X102662943Y-64267481D01*
X102596760Y-64274000D01*
X102508240Y-64274000D01*
X102442057Y-64267481D01*
X102375873Y-64260963D01*
X102206034Y-64209443D01*
X102049509Y-64125778D01*
X102013771Y-64096448D01*
X101912314Y-64013186D01*
X101829052Y-63911729D01*
X101799722Y-63875991D01*
X101716057Y-63719466D01*
X101664537Y-63549627D01*
X101647141Y-63373000D01*
X101664537Y-63196373D01*
X101716057Y-63026534D01*
X101799722Y-62870009D01*
X101829052Y-62834271D01*
X101912314Y-62732814D01*
X102013771Y-62649552D01*
X102049509Y-62620222D01*
X102206034Y-62536557D01*
X102375873Y-62485037D01*
X102442057Y-62478519D01*
X102508240Y-62472000D01*
X102596760Y-62472000D01*
X102662943Y-62478519D01*
X102662943Y-62478519D01*
G37*
G36*
X90880500Y-62115000D02*
G01*
X89078500Y-62115000D01*
X89078500Y-60313000D01*
X90880500Y-60313000D01*
X90880500Y-62115000D01*
X90880500Y-62115000D01*
G37*
G36*
X102662942Y-59938518D02*
G01*
X102729127Y-59945037D01*
X102898966Y-59996557D01*
X103055491Y-60080222D01*
X103091229Y-60109552D01*
X103192686Y-60192814D01*
X103275948Y-60294271D01*
X103305278Y-60330009D01*
X103388943Y-60486534D01*
X103440463Y-60656373D01*
X103457859Y-60833000D01*
X103440463Y-61009627D01*
X103388943Y-61179466D01*
X103305278Y-61335991D01*
X103275948Y-61371729D01*
X103192686Y-61473186D01*
X103091229Y-61556448D01*
X103055491Y-61585778D01*
X102898966Y-61669443D01*
X102729127Y-61720963D01*
X102662943Y-61727481D01*
X102596760Y-61734000D01*
X102508240Y-61734000D01*
X102442057Y-61727481D01*
X102375873Y-61720963D01*
X102206034Y-61669443D01*
X102049509Y-61585778D01*
X102013771Y-61556448D01*
X101912314Y-61473186D01*
X101829052Y-61371729D01*
X101799722Y-61335991D01*
X101716057Y-61179466D01*
X101664537Y-61009627D01*
X101647141Y-60833000D01*
X101664537Y-60656373D01*
X101716057Y-60486534D01*
X101799722Y-60330009D01*
X101829052Y-60294271D01*
X101912314Y-60192814D01*
X102013771Y-60109552D01*
X102049509Y-60080222D01*
X102206034Y-59996557D01*
X102375873Y-59945037D01*
X102442058Y-59938518D01*
X102508240Y-59932000D01*
X102596760Y-59932000D01*
X102662942Y-59938518D01*
X102662942Y-59938518D01*
G37*
G36*
X90089942Y-57779518D02*
G01*
X90156127Y-57786037D01*
X90325966Y-57837557D01*
X90482491Y-57921222D01*
X90518229Y-57950552D01*
X90619686Y-58033814D01*
X90702948Y-58135271D01*
X90732278Y-58171009D01*
X90815943Y-58327534D01*
X90867463Y-58497373D01*
X90884859Y-58674000D01*
X90867463Y-58850627D01*
X90815943Y-59020466D01*
X90732278Y-59176991D01*
X90718319Y-59194000D01*
X90619686Y-59314186D01*
X90518229Y-59397448D01*
X90482491Y-59426778D01*
X90325966Y-59510443D01*
X90156127Y-59561963D01*
X90089943Y-59568481D01*
X90023760Y-59575000D01*
X89935240Y-59575000D01*
X89869057Y-59568481D01*
X89802873Y-59561963D01*
X89633034Y-59510443D01*
X89476509Y-59426778D01*
X89440771Y-59397448D01*
X89339314Y-59314186D01*
X89240681Y-59194000D01*
X89226722Y-59176991D01*
X89143057Y-59020466D01*
X89091537Y-58850627D01*
X89074141Y-58674000D01*
X89091537Y-58497373D01*
X89143057Y-58327534D01*
X89226722Y-58171009D01*
X89256052Y-58135271D01*
X89339314Y-58033814D01*
X89440771Y-57950552D01*
X89476509Y-57921222D01*
X89633034Y-57837557D01*
X89802873Y-57786037D01*
X89869058Y-57779518D01*
X89935240Y-57773000D01*
X90023760Y-57773000D01*
X90089942Y-57779518D01*
X90089942Y-57779518D01*
G37*
G36*
X103453500Y-59194000D02*
G01*
X101651500Y-59194000D01*
X101651500Y-57392000D01*
X103453500Y-57392000D01*
X103453500Y-59194000D01*
X103453500Y-59194000D01*
G37*
M02*
