M48
; DRILL file {KiCad (5.1.2-1)-1} date Saturday, March 06, 2021 at 08:10:25 AM
; FORMAT={-:-/ absolute / inch / decimal}
; #@! TF.CreationDate,2021-03-06T08:10:25-07:00
; #@! TF.GenerationSoftware,Kicad,Pcbnew,(5.1.2-1)-1
; #@! TF.FileFunction,Plated,1,2,PTH
FMAT,2
INCH
T1C0.0157
T2C0.0394
%
G90
G05
T1
X2.6875Y-3.2675
X3.2025Y-3.27
X3.2025Y-3.37
X5.6525Y-3.0825
X5.6525Y-3.2175
X5.655Y-3.9125
X5.66Y-4.006
T2
X4.0375Y-2.295
X4.0375Y-2.395
X4.0375Y-2.495
X1.88Y-2.99
X1.98Y-2.99
X2.08Y-2.99
X2.18Y-2.99
X4.25Y-3.62
X4.35Y-3.62
X4.45Y-3.62
X4.55Y-3.62
X1.9625Y-3.5475
X1.9625Y-3.6475
X1.9625Y-3.7475
X2.0625Y-3.5475
X2.0625Y-3.6475
X2.0625Y-3.7475
X5.8425Y-2.6225
X5.9425Y-2.6225
X6.0425Y-2.6225
X6.92Y-3.5175
X6.92Y-3.6175
X6.92Y-3.7175
X7.02Y-3.5175
X7.02Y-3.6175
X7.02Y-3.7175
X6.8275Y-2.95
X6.9275Y-2.95
X7.0275Y-2.95
X7.1275Y-2.95
X3.5425Y-2.31
X3.5425Y-2.41
T0
M30
